<svg width="185" height="54" viewBox="0 0 185 54" fill="none" xmlns="http://www.w3.org/2000/svg">
<path d="M7.99999 35C9.91761 34.7153 11.6689 33.7506 12.9344 32.282C14.1999 30.8133 14.8952 28.9386 14.8933 27C14.903 24.5665 15.7858 22.2172 17.3812 20.3796C18.9766 18.5419 21.1786 17.338 23.5867 16.9867L27.04 16.4933C26.9467 16.3867 26.8667 16.28 26.76 16.1733C22.4133 11.8267 14.0667 13.1333 8.09332 19.08C3.03999 24.2 1.33332 31 3.67999 35.6133L7.99999 35Z" fill="#6F4E37"/>
<path d="M16.9733 27C16.9646 29.4331 16.0842 31.7825 14.4917 33.6221C12.8992 35.4616 10.7001 36.6695 8.29334 37.0267L5.01334 37.4933L5.21334 37.72C9.56 42.0667 17.9067 40.7733 23.88 34.8267C28.9067 29.8133 30.6667 23 28.3333 18.4533L23.88 19.0933C21.9746 19.3701 20.2311 20.3193 18.9644 21.7694C17.6978 23.2194 16.9915 25.0747 16.9733 27Z" fill="#6F4E37"/>
<path d="M50.3906 37.2344C47.2656 37.2344 44.9583 36.4219 43.4688 34.7969C41.9896 33.1719 41.25 30.6458 41.25 27.2188C41.25 20.625 44.3438 17.3281 50.5312 17.3281C51.375 17.3281 52.25 17.4115 53.1562 17.5781C54.0625 17.7448 54.8177 17.9792 55.4219 18.2812C56.0365 18.5729 56.3438 18.901 56.3438 19.2656C56.3438 19.526 56.2396 19.8698 56.0312 20.2969C55.8229 20.7135 55.5729 21.0833 55.2812 21.4062C55 21.7292 54.75 21.8906 54.5312 21.8906C54.4792 21.8906 54.3385 21.8385 54.1094 21.7344C53.6094 21.526 53.0833 21.3542 52.5312 21.2188C51.9896 21.0729 51.2969 21 50.4531 21C48.8177 21 47.6042 21.5208 46.8125 22.5625C46.0312 23.5938 45.6406 25.1562 45.6406 27.25C45.6406 29.3438 46.0365 30.9219 46.8281 31.9844C47.6198 33.0469 48.8073 33.5781 50.3906 33.5781C51.2135 33.5781 51.9271 33.4948 52.5312 33.3281C53.1458 33.1615 53.7448 32.9479 54.3281 32.6875C54.3594 32.6771 54.4531 32.6406 54.6094 32.5781C54.7656 32.5052 54.8802 32.4688 54.9531 32.4688C55.224 32.4688 55.4844 32.6302 55.7344 32.9531C55.9844 33.2656 56.1875 33.625 56.3438 34.0312C56.5 34.4271 56.5781 34.7135 56.5781 34.8906C56.5781 35.401 56.2344 35.8333 55.5469 36.1875C54.8698 36.5417 54.0469 36.8073 53.0781 36.9844C52.1198 37.151 51.224 37.2344 50.3906 37.2344ZM65.1406 37.2344C62.9427 37.2344 61.2656 36.5885 60.1094 35.2969C58.9635 34.0052 58.3906 32.1458 58.3906 29.7188C58.3906 27.3021 58.9635 25.4531 60.1094 24.1719C61.2656 22.8906 62.9427 22.25 65.1406 22.25C67.3385 22.25 69.0052 22.8906 70.1406 24.1719C71.2865 25.4427 71.8594 27.2917 71.8594 29.7188C71.8594 32.1458 71.2865 34.0052 70.1406 35.2969C69.0052 36.5885 67.3385 37.2344 65.1406 37.2344ZM65.1406 33.9688C66.0156 33.9688 66.6562 33.6146 67.0625 32.9062C67.4792 32.1979 67.6875 31.1354 67.6875 29.7188C67.6875 28.3125 67.4792 27.2552 67.0625 26.5469C66.6562 25.8385 66.0156 25.4844 65.1406 25.4844C63.4115 25.4844 62.5469 26.8958 62.5469 29.7188C62.5469 31.125 62.7552 32.1875 63.1719 32.9062C63.599 33.6146 64.2552 33.9688 65.1406 33.9688ZM76.8906 37.0469C75.7865 37.0469 75.2344 36.7552 75.2344 36.1719V25.7188H74.7344C74.4427 25.7188 74.2292 25.6094 74.0938 25.3906C73.9688 25.1719 73.9062 24.8177 73.9062 24.3281V23.8594C73.9062 23.3698 73.9688 23.0156 74.0938 22.7969C74.2292 22.5781 74.4427 22.4688 74.7344 22.4688H75.2344V20.3906C75.2344 17.3906 76.5885 15.8906 79.2969 15.8906C81.1406 15.8906 82.0625 16.3438 82.0625 17.25C82.0625 17.3646 82.0208 17.5885 81.9375 17.9219C81.8646 18.2552 81.7604 18.5625 81.625 18.8438C81.5 19.1146 81.3542 19.25 81.1875 19.25C81.0938 19.25 80.9792 19.2344 80.8438 19.2031C80.6354 19.1615 80.4688 19.1406 80.3438 19.1406C79.9792 19.1406 79.7188 19.2344 79.5625 19.4219C79.4167 19.599 79.3438 19.901 79.3438 20.3281V22.4688H80.7344C81.026 22.4688 81.2344 22.5781 81.3594 22.7969C81.4948 23.0156 81.5625 23.3698 81.5625 23.8594V24.3281C81.5625 24.8177 81.4948 25.1719 81.3594 25.3906C81.2344 25.6094 81.026 25.7188 80.7344 25.7188H79.3438V36.1719C79.3438 36.7552 78.7865 37.0469 77.6719 37.0469H76.8906ZM85.9219 37.0469C84.8177 37.0469 84.2656 36.7552 84.2656 36.1719V25.7188H83.7656C83.474 25.7188 83.2604 25.6094 83.125 25.3906C83 25.1719 82.9375 24.8177 82.9375 24.3281V23.8594C82.9375 23.3698 83 23.0156 83.125 22.7969C83.2604 22.5781 83.474 22.4688 83.7656 22.4688H84.2656V20.3906C84.2656 17.3906 85.6198 15.8906 88.3281 15.8906C90.1719 15.8906 91.0938 16.3438 91.0938 17.25C91.0938 17.3646 91.0521 17.5885 90.9688 17.9219C90.8958 18.2552 90.7917 18.5625 90.6562 18.8438C90.5312 19.1146 90.3854 19.25 90.2188 19.25C90.125 19.25 90.0104 19.2344 89.875 19.2031C89.6667 19.1615 89.5 19.1406 89.375 19.1406C89.0104 19.1406 88.75 19.2344 88.5938 19.4219C88.4479 19.599 88.375 19.901 88.375 20.3281V22.4688H89.7656C90.0573 22.4688 90.2656 22.5781 90.3906 22.7969C90.526 23.0156 90.5938 23.3698 90.5938 23.8594V24.3281C90.5938 24.8177 90.526 25.1719 90.3906 25.3906C90.2656 25.6094 90.0573 25.7188 89.7656 25.7188H88.375V36.1719C88.375 36.7552 87.8177 37.0469 86.7031 37.0469H85.9219ZM99.5156 37.2344C97.0781 37.2344 95.2604 36.5833 94.0625 35.2812C92.8646 33.9688 92.2656 32.151 92.2656 29.8281C92.2656 27.2135 92.8646 25.2969 94.0625 24.0781C95.2604 22.8594 96.9115 22.25 99.0156 22.25C100.411 22.25 101.552 22.5677 102.438 23.2031C103.333 23.8385 103.984 24.6927 104.391 25.7656C104.807 26.8385 105.016 28.0521 105.016 29.4062C105.016 29.5625 104.922 29.7708 104.734 30.0312C104.557 30.2917 104.354 30.526 104.125 30.7344C103.896 30.9427 103.719 31.0469 103.594 31.0469H96.5156C96.6094 32.1094 96.9219 32.8646 97.4531 33.3125C97.9948 33.75 98.7448 33.9688 99.7031 33.9688C100.224 33.9688 100.693 33.9115 101.109 33.7969C101.536 33.6719 101.99 33.5104 102.469 33.3125C102.76 33.1771 102.958 33.1094 103.062 33.1094C103.25 33.1094 103.453 33.2448 103.672 33.5156C103.901 33.776 104.094 34.0781 104.25 34.4219C104.417 34.7656 104.5 35.0312 104.5 35.2188C104.5 35.6458 104.208 36.0104 103.625 36.3125C103.052 36.6146 102.37 36.8438 101.578 37C100.797 37.1562 100.109 37.2344 99.5156 37.2344ZM101.016 28.3125C101.016 27.4583 100.849 26.776 100.516 26.2656C100.182 25.7448 99.6823 25.4844 99.0156 25.4844C97.6406 25.4844 96.8073 26.4271 96.5156 28.3125H101.016ZM114.516 37.2344C112.078 37.2344 110.26 36.5833 109.062 35.2812C107.865 33.9688 107.266 32.151 107.266 29.8281C107.266 27.2135 107.865 25.2969 109.062 24.0781C110.26 22.8594 111.911 22.25 114.016 22.25C115.411 22.25 116.552 22.5677 117.438 23.2031C118.333 23.8385 118.984 24.6927 119.391 25.7656C119.807 26.8385 120.016 28.0521 120.016 29.4062C120.016 29.5625 119.922 29.7708 119.734 30.0312C119.557 30.2917 119.354 30.526 119.125 30.7344C118.896 30.9427 118.719 31.0469 118.594 31.0469H111.516C111.609 32.1094 111.922 32.8646 112.453 33.3125C112.995 33.75 113.745 33.9688 114.703 33.9688C115.224 33.9688 115.693 33.9115 116.109 33.7969C116.536 33.6719 116.99 33.5104 117.469 33.3125C117.76 33.1771 117.958 33.1094 118.062 33.1094C118.25 33.1094 118.453 33.2448 118.672 33.5156C118.901 33.776 119.094 34.0781 119.25 34.4219C119.417 34.7656 119.5 35.0312 119.5 35.2188C119.5 35.6458 119.208 36.0104 118.625 36.3125C118.052 36.6146 117.37 36.8438 116.578 37C115.797 37.1562 115.109 37.2344 114.516 37.2344ZM116.016 28.3125C116.016 27.4583 115.849 26.776 115.516 26.2656C115.182 25.7448 114.682 25.4844 114.016 25.4844C112.641 25.4844 111.807 26.4271 111.516 28.3125H116.016ZM124.688 37.0469C123.573 37.0469 123.016 36.7552 123.016 36.1719V18.3906C123.016 18.0885 123.151 17.8646 123.422 17.7188C123.693 17.5625 124.115 17.4844 124.688 17.4844H126.156C127.042 17.4844 127.62 17.7396 127.891 18.25L132.562 26.5469L132.797 26.9531L133.031 26.4688L137.734 18.25C138.016 17.7396 138.599 17.4844 139.484 17.4844H140.938C142.052 17.4844 142.609 17.7865 142.609 18.3906V36.1719C142.609 36.7552 142.052 37.0469 140.938 37.0469H140.125C139.01 37.0469 138.453 36.7552 138.453 36.1719V24.6562L138.344 24.625L134.312 31.8281C134.073 32.1823 133.703 32.3594 133.203 32.3594H132.406C132.146 32.3594 131.927 32.3177 131.75 32.2344C131.573 32.1406 131.422 32.0052 131.297 31.8281L127.25 24.625L127.141 24.6562V36.1719C127.141 36.7552 126.589 37.0469 125.484 37.0469H124.688ZM149.781 37.2344C148.365 37.2344 147.323 36.8646 146.656 36.125C146 35.375 145.672 34.3854 145.672 33.1562C145.672 32.2292 145.865 31.3958 146.25 30.6562C146.635 29.9062 147.417 29.276 148.594 28.7656C149.771 28.2552 151.453 28 153.641 28V27.0781C153.641 26.5365 153.469 26.1354 153.125 25.875C152.781 25.6146 152.234 25.4844 151.484 25.4844C150.859 25.4844 150.323 25.5521 149.875 25.6875C149.427 25.8125 148.943 25.9844 148.422 26.2031C148.151 26.3281 147.984 26.3906 147.922 26.3906C147.734 26.3906 147.526 26.25 147.297 25.9688C147.078 25.6875 146.885 25.3646 146.719 25C146.552 24.6354 146.469 24.3594 146.469 24.1719C146.469 23.849 146.698 23.5417 147.156 23.25C147.625 22.9479 148.266 22.7083 149.078 22.5312C149.891 22.3438 150.792 22.25 151.781 22.25C153.865 22.25 155.38 22.6667 156.328 23.5C157.276 24.3229 157.75 25.4531 157.75 26.8906V32.0938C157.75 32.9583 157.771 33.6302 157.812 34.1094C157.865 34.5885 157.932 35.0625 158.016 35.5312C158.068 35.8125 158.094 36.0104 158.094 36.125C158.094 36.3333 157.896 36.5052 157.5 36.6406C157.115 36.776 156.672 36.875 156.172 36.9375C155.672 37 155.271 37.0312 154.969 37.0312C154.646 37.0312 154.411 36.8958 154.266 36.625C154.13 36.3438 154.021 35.9635 153.938 35.4844C153.927 35.4219 153.917 35.3594 153.906 35.2969C153.896 35.2344 153.88 35.1719 153.859 35.1094C153.755 35.3073 153.531 35.5729 153.188 35.9062C152.854 36.2396 152.396 36.5469 151.812 36.8281C151.229 37.099 150.552 37.2344 149.781 37.2344ZM151.141 33.9688C151.661 33.9688 152.151 33.8073 152.609 33.4844C153.068 33.151 153.411 32.7292 153.641 32.2188V30.6875C151.047 30.6875 149.75 31.3698 149.75 32.7344C149.75 33.099 149.87 33.3958 150.109 33.625C150.359 33.8542 150.703 33.9688 151.141 33.9688ZM165.859 37.2344C164.536 37.2344 163.526 36.8646 162.828 36.125C162.141 35.375 161.797 34.2396 161.797 32.7188V25.7188H161.359C161.068 25.7188 160.854 25.6094 160.719 25.3906C160.594 25.1719 160.531 24.8177 160.531 24.3281V23.8594C160.531 23.3698 160.594 23.0156 160.719 22.7969C160.854 22.5781 161.068 22.4688 161.359 22.4688H161.797L162.156 19.8281C162.24 19.2448 162.74 18.9531 163.656 18.9531H164.531C165.01 18.9531 165.359 19.026 165.578 19.1719C165.807 19.3177 165.922 19.5365 165.922 19.8281V22.4688H167.281C167.573 22.4688 167.781 22.5781 167.906 22.7969C168.042 23.0156 168.109 23.3698 168.109 23.8594V24.3281C168.109 24.8177 168.042 25.1719 167.906 25.3906C167.781 25.6094 167.573 25.7188 167.281 25.7188H165.922V32.7656C165.922 33.1927 165.995 33.5 166.141 33.6875C166.297 33.875 166.552 33.9688 166.906 33.9688C167.01 33.9688 167.151 33.9531 167.328 33.9219C167.505 33.8802 167.615 33.8594 167.656 33.8594C167.823 33.8594 167.969 34 168.094 34.2812C168.229 34.5521 168.333 34.8542 168.406 35.1875C168.49 35.5208 168.531 35.7448 168.531 35.8594C168.531 36.776 167.641 37.2344 165.859 37.2344ZM177.609 37.2344C175.172 37.2344 173.354 36.5833 172.156 35.2812C170.958 33.9688 170.359 32.151 170.359 29.8281C170.359 27.2135 170.958 25.2969 172.156 24.0781C173.354 22.8594 175.005 22.25 177.109 22.25C178.505 22.25 179.646 22.5677 180.531 23.2031C181.427 23.8385 182.078 24.6927 182.484 25.7656C182.901 26.8385 183.109 28.0521 183.109 29.4062C183.109 29.5625 183.016 29.7708 182.828 30.0312C182.651 30.2917 182.448 30.526 182.219 30.7344C181.99 30.9427 181.812 31.0469 181.688 31.0469H174.609C174.703 32.1094 175.016 32.8646 175.547 33.3125C176.089 33.75 176.839 33.9688 177.797 33.9688C178.318 33.9688 178.786 33.9115 179.203 33.7969C179.63 33.6719 180.083 33.5104 180.562 33.3125C180.854 33.1771 181.052 33.1094 181.156 33.1094C181.344 33.1094 181.547 33.2448 181.766 33.5156C181.995 33.776 182.188 34.0781 182.344 34.4219C182.51 34.7656 182.594 35.0312 182.594 35.2188C182.594 35.6458 182.302 36.0104 181.719 36.3125C181.146 36.6146 180.464 36.8438 179.672 37C178.891 37.1562 178.203 37.2344 177.609 37.2344ZM179.109 28.3125C179.109 27.4583 178.943 26.776 178.609 26.2656C178.276 25.7448 177.776 25.4844 177.109 25.4844C175.734 25.4844 174.901 26.4271 174.609 28.3125H179.109Z" fill="#32241A"/>
</svg>
